<?xml version="1.0" encoding="UTF-8"?>
<svg width="60px" height="60px" viewBox="0 0 60 60" version="1.1" xmlns="http://www.w3.org/2000/svg" xmlns:xlink="http://www.w3.org/1999/xlink">
    <title>Artboard</title>
    <g id="Artboard" stroke="none" stroke-width="1" fill="none" fill-rule="evenodd">
        <path d="M30,3 C44.9116882,3 57,15.0883118 57,30 C57,44.9116882 44.9116882,57 30,57 C15.0883118,57 3,44.9116882 3,30 C3,15.0883118 15.0883118,3 30,3 Z M30,7 C17.2974508,7 7,17.2974508 7,30 C7,42.7025492 17.2974508,53 30,53 C42.7025492,53 53,42.7025492 53,30 C53,17.2974508 42.7025492,7 30,7 Z" id="Oval" fill="#000000" fill-rule="nonzero"></path>
        <path d="M13.8786797,31.8786797 C15.0502525,30.7071068 16.9497475,30.7071068 18.1213203,31.8786797 L28.6213203,42.3786797 C29.7928932,43.5502525 29.7928932,45.4497475 28.6213203,46.6213203 C27.4497475,47.7928932 25.5502525,47.7928932 24.3786797,46.6213203 L13.8786797,36.1213203 C12.7071068,34.9497475 12.7071068,33.0502525 13.8786797,31.8786797 Z" id="Line" fill="#000000" fill-rule="nonzero"></path>
        <path d="M40.5116892,18.3241989 C41.4372086,16.9499428 43.301545,16.5861698 44.6758011,17.5116892 C46.0500572,18.4372086 46.4138302,20.301545 45.4883108,21.6758011 L28.9883108,46.1758011 C28.0627914,47.5500572 26.198455,47.9138302 24.8241989,46.9883108 C23.4499428,46.0627914 23.0861698,44.198455 24.0116892,42.8241989 L40.5116892,18.3241989 Z" id="Line-Copy" fill="#000000" fill-rule="nonzero"></path>
    </g>
</svg>